#Comment line ignore any data following # character 
#Hierarchical Translation and Rotation (.htr) file 
[Header]	
#Header keywords are followed by a single value 
FileType HTR		#Single word string
DataType HTRS		#Translation followed by rotation and scale data
FileVersion 1		#integer
NumSegments 64		#integer
NumFrames 3		#integer
DataFrameRate 30		#integer, data frame rate in this file
EulerRotationOrder ZYX
CalibrationUnits mm
RotationUnits Degrees
GlobalAxisofGravity Y
BoneLengthAxis Y
ScaleFactor 1.00
[SegmentNames&Hierarchy]
#CHILD	PARENT
Pinger_Root GLOBAL
Pelvis Pinger_Root
L_Hip Pelvis
R_Hip Pelvis
Rear_Leg01 Pelvis
Spine1 Pelvis
L_Leg01 L_Hip
L_Leg02 L_Leg01
L_Leg03 L_Leg02
L_Foot L_Leg03
L_Toe1_01 L_Foot
L_Toe2_01 L_Foot
L_Toe3_01 L_Foot
planeAlignerLeft L_Foot
L_Toe1_02 L_Toe1_01
L_Toe1_03 L_Toe1_02
L_Toe2_02 L_Toe2_01
L_Toe2_03 L_Toe2_02
L_Toe3_02 L_Toe3_01
L_Toe3_03 L_Toe3_02
planeLockWeightLeft planeAlignerLeft
R_Leg01 R_Hip
R_Leg02 R_Leg01
R_Leg03 R_Leg02
R_Foot R_Leg03
planeAlignerRight R_Foot
R_Toe1_01 R_Foot
R_Toe2_01 R_Foot
R_Toe3_01 R_Foot
planeLockWeightRight planeAlignerRight
R_Toe1_02 R_Toe1_01
R_Toe1_03 R_Toe1_02
R_Toe2_02 R_Toe2_01
R_Toe2_03 R_Toe2_02
R_Toe3_02 R_Toe3_01
R_Toe3_03 R_Toe3_02
Rear_Leg02 Rear_Leg01
Rear_Leg03 Rear_Leg02
Rear_Leg04 Rear_Leg03
Rear_Foot Rear_Leg04
planeAlignerCenter Rear_Foot
Rear_Toe1_01 Rear_Foot
Rear_Toe2_01 Rear_Foot
Rear_Toe3_01 Rear_Foot
planeLockWeightCenter planeAlignerCenter
Rear_Toe1_02 Rear_Toe1_01
Rear_Toe1_03 Rear_Toe1_02
Rear_Toe2_02 Rear_Toe2_01
Rear_Toe2_03 Rear_Toe2_02
Rear_Toe3_02 Rear_Toe3_01
Rear_Toe3_03 Rear_Toe3_02
Back_Bone Spine1
Head Spine1
Motor_Bone Back_Bone
Ping_Mechanism Back_Bone
BN_LookIK Head
bottomMouth Head
L_Mouth01 Head
L_mouthFront Head
mouthGun Head
R_Mouth01 Head
R_mouthFront Head
TopMouth Head
weapon_bone Head
[BasePosition]
#SegmentName Tx, Ty, Tz, Rx, Ry, Rz, BoneLength
Pinger_Root 0.000000 0.000000 0.000000 -90.000000 0.000000 0.000000 10.000000 
Pelvis 0.000000 0.000000 0.000000 0.000000 0.000000 0.000000 10.000000 
L_Hip 0.000000 0.000000 0.000000 0.000000 0.000000 0.000000 10.000000 
R_Hip 0.000000 0.000000 0.000000 0.000000 0.000000 0.000000 10.000000 
Rear_Leg01 0.000000 0.000000 0.000000 0.000000 0.000000 0.000000 10.000000 
Spine1 0.000000 0.000000 0.000000 0.000000 0.000000 0.000000 10.000000 
L_Leg01 0.000000 0.000000 0.000000 0.000000 0.000000 0.000000 10.000000 
L_Leg02 0.000000 0.000000 0.000000 0.000000 0.000000 0.000000 10.000000 
L_Leg03 0.000000 0.000000 0.000000 0.000000 0.000000 0.000000 10.000000 
L_Foot 0.000000 0.000000 0.000000 0.000000 0.000000 0.000000 10.000000 
L_Toe1_01 0.000000 0.000000 0.000000 0.000000 0.000000 0.000000 10.000000 
L_Toe2_01 0.000000 0.000000 0.000000 0.000000 0.000000 0.000000 10.000000 
L_Toe3_01 0.000000 0.000000 0.000000 0.000000 0.000000 0.000000 10.000000 
planeAlignerLeft 0.000000 0.000000 0.000000 0.000000 0.000000 0.000000 10.000000 
L_Toe1_02 0.000000 0.000000 0.000000 0.000000 0.000000 0.000000 10.000000 
L_Toe1_03 0.000000 0.000000 0.000000 0.000000 0.000000 0.000000 10.000000 
L_Toe2_02 0.000000 0.000000 0.000000 0.000000 0.000000 0.000000 10.000000 
L_Toe2_03 0.000000 0.000000 0.000000 0.000000 0.000000 0.000000 10.000000 
L_Toe3_02 0.000000 0.000000 0.000000 0.000000 0.000000 0.000000 10.000000 
L_Toe3_03 0.000000 0.000000 0.000000 0.000000 0.000000 0.000000 10.000000 
planeLockWeightLeft 0.000000 0.000000 0.000000 0.000000 0.000000 0.000000 10.000000 
R_Leg01 0.000000 0.000000 0.000000 0.000000 0.000000 0.000000 10.000000 
R_Leg02 0.000000 0.000000 0.000000 0.000000 0.000000 0.000000 10.000000 
R_Leg03 0.000000 0.000000 0.000000 0.000000 0.000000 0.000000 10.000000 
R_Foot 0.000000 0.000000 0.000000 0.000000 0.000000 0.000000 10.000000 
planeAlignerRight 0.000000 0.000000 0.000000 0.000000 0.000000 0.000000 10.000000 
R_Toe1_01 0.000000 0.000000 0.000000 0.000000 0.000000 0.000000 10.000000 
R_Toe2_01 0.000000 0.000000 0.000000 0.000000 0.000000 0.000000 10.000000 
R_Toe3_01 0.000000 0.000000 0.000000 0.000000 0.000000 0.000000 10.000000 
planeLockWeightRight 0.000000 0.000000 0.000000 0.000000 0.000000 0.000000 10.000000 
R_Toe1_02 0.000000 0.000000 0.000000 0.000000 0.000000 0.000000 10.000000 
R_Toe1_03 0.000000 0.000000 0.000000 0.000000 0.000000 0.000000 10.000000 
R_Toe2_02 0.000000 0.000000 0.000000 0.000000 0.000000 0.000000 10.000000 
R_Toe2_03 0.000000 0.000000 0.000000 0.000000 0.000000 0.000000 10.000000 
R_Toe3_02 0.000000 0.000000 0.000000 0.000000 0.000000 0.000000 10.000000 
R_Toe3_03 0.000000 0.000000 0.000000 0.000000 0.000000 0.000000 10.000000 
Rear_Leg02 0.000000 0.000000 0.000000 0.000000 0.000000 0.000000 10.000000 
Rear_Leg03 0.000000 0.000000 0.000000 0.000000 0.000000 0.000000 10.000000 
Rear_Leg04 0.000000 0.000000 0.000000 0.000000 0.000000 0.000000 10.000000 
Rear_Foot 0.000000 0.000000 0.000000 0.000000 0.000000 0.000000 10.000000 
planeAlignerCenter 0.000000 0.000000 0.000000 0.000000 0.000000 0.000000 10.000000 
Rear_Toe1_01 0.000000 0.000000 0.000000 0.000000 0.000000 0.000000 10.000000 
Rear_Toe2_01 0.000000 0.000000 0.000000 0.000000 0.000000 0.000000 10.000000 
Rear_Toe3_01 0.000000 0.000000 0.000000 0.000000 0.000000 0.000000 10.000000 
planeLockWeightCenter 0.000000 0.000000 0.000000 0.000000 0.000000 0.000000 10.000000 
Rear_Toe1_02 0.000000 0.000000 0.000000 0.000000 0.000000 0.000000 10.000000 
Rear_Toe1_03 0.000000 0.000000 0.000000 0.000000 0.000000 0.000000 10.000000 
Rear_Toe2_02 0.000000 0.000000 0.000000 0.000000 0.000000 0.000000 10.000000 
Rear_Toe2_03 0.000000 0.000000 0.000000 0.000000 0.000000 0.000000 10.000000 
Rear_Toe3_02 0.000000 0.000000 0.000000 0.000000 0.000000 0.000000 10.000000 
Rear_Toe3_03 0.000000 0.000000 0.000000 0.000000 0.000000 0.000000 10.000000 
Back_Bone 0.000000 0.000000 0.000000 0.000000 0.000000 0.000000 10.000000 
Head 0.000000 0.000000 0.000000 0.000000 0.000000 0.000000 10.000000 
Motor_Bone 0.000000 0.000000 0.000000 0.000000 0.000000 0.000000 10.000000 
Ping_Mechanism 0.000000 0.000000 0.000000 0.000000 0.000000 0.000000 10.000000 
BN_LookIK 0.000000 0.000000 0.000000 0.000000 0.000000 0.000000 10.000000 
bottomMouth 0.000000 0.000000 0.000000 0.000000 0.000000 0.000000 10.000000 
L_Mouth01 0.000000 0.000000 0.000000 0.000000 0.000000 0.000000 10.000000 
L_mouthFront 0.000000 0.000000 0.000000 0.000000 0.000000 0.000000 10.000000 
mouthGun 0.000000 0.000000 0.000000 0.000000 0.000000 0.000000 10.000000 
R_Mouth01 0.000000 0.000000 0.000000 0.000000 0.000000 0.000000 10.000000 
R_mouthFront 0.000000 0.000000 0.000000 0.000000 0.000000 0.000000 10.000000 
TopMouth 0.000000 0.000000 0.000000 0.000000 0.000000 0.000000 10.000000 
weapon_bone 0.000000 0.000000 0.000000 0.000000 0.000000 0.000000 10.000000 
#Beginning of Data. Separated by tabs
#Fr	Tx	Ty	Tz	Rx	Ry	Rz	SF
[Pinger_Root]
49 6222.220215 0.000000 0.000000 -0.000075 -0.000000 -0.000020 6222.220703
50 6351.849609 0.000000 0.000000 -0.000075 -0.000000 -0.000020 6351.849609
51 6481.478516 0.000000 0.000000 -0.000075 -0.000000 -0.000020 6481.479004
[Pelvis]
49 577.610107 -519.850098 4963.505859 -114.132805 -70.532219 65.112679 5023.969238
50 598.091187 -484.105286 4969.987305 -109.541122 -71.271355 58.789906 5029.199219
51 615.295044 -438.438385 4979.947754 -106.966583 -71.878532 54.879776 5036.933105
[L_Hip]
49 5.766392 125.831482 872.656799 -178.250168 -81.786369 87.376007 881.701050
50 5.766392 125.831482 872.656799 -178.250168 -81.786369 87.376007 881.701050
51 5.766392 125.831482 872.656799 -178.250168 -81.786369 87.376007 881.701050
[R_Hip]
49 5.765438 125.836372 -872.654907 -1.748770 81.786041 87.376961 881.699829
50 5.765438 125.836372 -872.654907 -1.748770 81.786041 87.376961 881.699829
51 5.765438 125.836372 -872.654907 -1.748770 81.786041 87.376961 881.699829
[Rear_Leg01]
49 -192.298416 -925.602966 -0.001907 171.086334 -46.573914 -151.380493 945.367432
50 -192.298416 -925.602966 -0.001907 169.100220 -44.211803 -145.425064 945.367432
51 -192.298416 -925.602966 -0.001907 167.902802 -40.585941 -145.473663 945.367432
[Spine1]
49 290.604584 5.007505 0.000477 37.054810 -9.691792 4.929765 290.647736
50 290.604584 5.007505 0.000477 38.627396 -12.121867 4.680471 290.647736
51 290.604584 5.007505 0.000477 40.144470 -13.846354 4.666848 290.647736
[L_Leg01]
49 761.932007 -0.002384 -0.069261 46.772820 -51.006954 -61.004444 761.932068
50 761.932007 -0.002384 -0.069261 49.593666 -46.357616 -64.285149 761.932068
51 761.932007 -0.002384 -0.069261 50.017788 -44.268436 -63.810574 761.932068
[L_Leg02]
49 1441.140503 -0.000954 -0.000715 -1.548670 0.522258 -76.858498 1441.140503
50 1441.140503 -0.000954 -0.000715 -1.578526 0.472167 -75.181946 1441.140503
51 1441.140503 -0.000954 -0.000715 -1.587050 0.440626 -78.693909 1441.140503
[L_Leg03]
49 1686.963989 -0.000715 -0.000954 0.043689 -0.010188 98.304665 1686.963989
50 1686.963989 -0.000715 -0.000954 0.036536 -0.010348 100.390610 1686.963989
51 1686.963989 -0.000715 -0.000954 0.029381 -0.010247 102.476563 1686.963989
[L_Foot]
49 3041.570068 -30.715107 11.297464 6.836550 8.255125 31.903517 3041.746094
50 3041.570068 -30.715107 11.297464 4.035401 9.707705 31.943306 3041.746094
51 3041.570068 -30.715107 11.297464 1.380050 11.254915 33.846138 3041.746094
[L_Toe1_01]
49 -188.216690 -224.732346 -21.137953 89.193130 -0.506438 -160.381485 293.899567
50 -188.216690 -224.732346 -21.137953 89.205383 -0.706436 -160.837662 293.899567
51 -188.216690 -224.732346 -21.137953 89.290794 -1.338514 -162.016937 293.899567
[L_Toe2_01]
49 200.746536 -219.926590 148.838394 -78.432335 -14.137962 -41.680050 332.896027
50 200.746536 -219.926590 148.838394 -78.335396 -14.202177 -41.975266 332.896027
51 200.746536 -219.926590 148.838394 -78.238052 -14.265880 -42.270695 332.896027
[L_Toe3_01]
49 188.832520 -219.859131 -191.078659 -106.078789 21.001497 -44.939529 347.140900
50 188.832520 -219.859131 -191.078659 -106.012360 20.507971 -44.898560 347.140900
51 188.832520 -219.859131 -191.078659 -105.810135 19.125618 -44.847546 347.140900
[planeAlignerLeft]
49 -126.568642 -599.543335 -25.143982 0.000000 -90.000000 -90.001900 613.273254
50 -118.073593 -600.039429 -21.261061 0.000000 -90.000000 -90.001900 611.915588
51 -96.839394 -601.287415 -11.559023 0.000000 -90.000000 -90.001900 609.145325
[L_Toe1_02]
49 413.761139 0.000477 0.000000 0.001387 -25.607019 0.001387 413.761139
50 413.761139 0.000477 0.000000 0.001389 -25.282644 0.001389 413.761139
51 413.761139 0.000477 0.000000 0.001392 -24.958258 0.001392 413.761139
[L_Toe1_03]
49 464.317322 0.000358 -0.000089 0.004796 61.670918 0.004796 464.317322
50 464.317322 0.000358 -0.000089 0.005104 63.412487 0.005104 464.317322
51 464.317322 0.000358 -0.000089 0.006014 67.492607 0.006014 464.317322
[L_Toe2_02]
49 342.235809 -0.000477 0.000238 0.004686 -80.616463 0.004686 342.235809
50 342.235809 -0.000477 0.000238 0.004687 -80.376984 0.004687 342.235809
51 342.235809 -0.000477 0.000238 0.004688 -80.137352 0.004688 342.235809
[L_Toe2_03]
49 420.210846 -0.000715 0.000000 179.991943 59.238224 179.999207 420.210846
50 420.210846 -0.000715 0.000000 -179.999557 60.465000 -179.995941 420.210846
51 420.210846 -0.000715 0.000000 -179.999283 63.586960 -179.995697 420.210846
[L_Toe3_02]
49 329.270111 0.000954 0.000000 0.004677 -83.740036 0.004677 329.270111
50 329.270111 0.000954 0.000000 0.003510 -83.492859 0.003510 329.270111
51 329.270111 0.000954 0.000000 0.002343 -83.245583 0.002343 329.270111
[L_Toe3_03]
49 439.137451 -0.001907 0.000954 179.991684 61.072819 179.998917 439.137451
50 439.137451 -0.001907 0.000954 179.991577 61.826401 179.998795 439.137451
51 439.137451 -0.001907 0.000954 179.991241 63.773273 179.998428 439.137451
[planeLockWeightLeft]
49 1000.000000 0.098100 0.076336 -0.011826 -0.004376 0.005620 1000.000000
50 1000.000000 0.098128 0.076328 -0.011826 -0.004376 0.005620 1000.000000
51 1000.000000 0.098156 0.076319 -0.011826 -0.004376 0.005620 1000.000000
[R_Leg01]
49 761.455627 -0.001907 -0.000358 110.048393 -23.302567 89.543335 761.455688
50 761.455627 -0.001907 -0.000358 105.696609 -22.436728 90.454826 761.455688
51 761.455627 -0.001907 -0.000358 101.432259 -21.152769 91.760727 761.455688
[R_Leg02]
49 1441.140625 0.000000 -0.000238 0.187360 -0.036946 -103.239861 1441.140625
50 1441.140625 0.000000 -0.000238 0.184124 -0.041564 -102.778587 1441.140625
51 1441.140625 0.000000 -0.000238 0.182915 -0.036895 -101.352867 1441.140625
[R_Leg03]
49 1686.963989 0.000954 0.001431 -0.043649 0.010232 98.432449 1686.963989
50 1686.963989 0.000954 0.001431 -0.046004 0.010274 98.114952 1686.963989
51 1686.963989 0.000954 0.001431 -0.049395 0.013472 96.865036 1686.963989
[R_Foot]
49 3041.560059 -30.531288 -11.204481 3.968199 -10.421681 86.865433 3041.734131
50 3041.560059 -30.531288 -11.204481 2.286692 -12.444611 88.507507 3041.734131
51 3041.560059 -30.531288 -11.204481 0.781834 -14.608200 90.220222 3041.734131
[planeAlignerRight]
49 -0.537720 -758.213684 0.019226 0.000000 -89.960434 -90.005180 758.213867
50 -0.533753 -737.295959 0.024414 0.000000 -89.960434 -90.005180 737.296204
51 -0.529785 -716.378235 0.029602 0.000000 -89.960434 -90.005180 716.378418
[R_Toe1_01]
49 -188.383347 -224.864899 21.052242 90.905067 1.895152 -153.953964 294.101532
50 -188.383347 -224.864899 21.052242 90.845505 1.920155 -155.622879 294.101532
51 -188.383347 -224.864899 21.052242 90.785248 1.943404 -157.291153 294.101532
[R_Toe2_01]
49 200.637817 -220.002121 -148.787384 -104.155663 10.177795 -55.072212 332.857574
50 200.637817 -220.002121 -148.787384 -103.900726 10.520918 -53.683182 332.857574
51 200.637817 -220.002121 -148.787384 -103.637108 10.857853 -52.291050 332.857574
[R_Toe3_01]
49 188.606735 -220.092957 191.126343 -71.630615 -12.467122 -56.982174 347.192566
50 188.606735 -220.092957 191.126343 -71.937119 -12.915637 -55.589046 347.192566
51 188.606735 -220.092957 191.126343 -72.255302 -13.356736 -54.190937 347.192566
[planeLockWeightRight]
49 999.999329 0.000358 0.076210 -0.011823 -0.004379 -0.000027 999.999329
50 999.999329 0.000400 0.076219 -0.011823 -0.004379 -0.000027 999.999329
51 999.999329 0.000442 0.076229 -0.011823 -0.004379 -0.000027 999.999329
[R_Toe1_02]
49 413.762085 0.000477 -0.000119 0.001395 -24.593676 0.001395 413.762085
50 413.762085 0.000477 -0.000119 0.001397 -24.285261 0.001397 413.762085
51 413.762085 0.000477 -0.000119 0.001400 -23.976854 0.001400 413.762085
[R_Toe1_03]
49 464.317810 0.000000 0.001088 0.006753 69.969864 0.006753 464.317810
50 464.317810 0.000000 0.001088 0.007536 72.073235 0.007536 464.317810
51 464.317810 0.000000 0.001088 0.008525 74.175186 0.008525 464.317810
[R_Toe2_02]
49 342.234741 -0.000954 0.000238 0.001187 -72.825470 0.001187 342.234741
50 342.234741 -0.000954 0.000238 0.000008 -73.576614 0.000008 342.234741
51 342.234741 -0.000954 0.000238 -0.001168 -74.327789 -0.001168 342.234741
[R_Toe2_03]
49 420.210846 0.000715 -0.000268 0.040361 86.667274 0.040361 420.210846
50 420.210846 0.000715 -0.000268 0.038541 89.088287 0.036792 420.210846
51 420.210846 0.000715 -0.000268 -179.954636 88.489876 -179.958145 420.210846
[R_Toe3_02]
49 329.270355 -0.000477 -0.000954 0.001181 -76.960808 0.001181 329.270355
50 329.270355 -0.000477 -0.000954 0.001180 -77.730057 0.001180 329.270355
51 329.270355 -0.000477 -0.000954 0.001180 -78.499199 0.001180 329.270355
[R_Toe3_03]
49 439.137939 0.000238 0.001431 0.000000 89.911530 0.003496 439.137939
50 439.137939 0.000238 0.001431 -179.971176 87.845139 -179.967667 439.137939
51 439.137939 0.000238 0.001431 -179.986740 85.611221 -179.983246 439.137939
[Rear_Leg02]
49 1162.777710 -0.029802 0.005960 -7.256812 -33.905739 -54.983063 1162.777710
50 1162.777710 -0.029802 0.005960 -3.302025 -34.206768 -56.513306 1162.777710
51 1162.777710 -0.029802 0.005960 7.083437 -33.095348 -70.458885 1162.777710
[Rear_Leg03]
49 607.192505 -0.013351 -0.073195 0.006616 -0.001614 55.628780 607.192505
50 607.192505 -0.013351 -0.073195 0.006578 -0.001763 58.210949 607.192505
51 607.192505 -0.013351 -0.073195 0.006471 -0.002124 64.549515 607.192505
[Rear_Leg04]
49 995.874512 -0.020504 -0.011921 -0.036273 -0.015945 42.540508 995.874573
50 995.874512 -0.020504 -0.011921 -0.036859 -0.014539 46.947712 995.874573
51 995.874512 -0.020504 -0.011921 -0.040582 -0.014987 58.732216 995.874573
[Rear_Foot]
49 3096.176270 -0.067472 -0.041425 -134.174713 38.038322 6.463028 3096.176270
50 3096.176270 -0.067472 -0.041425 -133.911896 39.123749 3.461004 3096.176270
51 3096.176270 -0.067472 -0.041425 -132.211502 43.017670 -1.220263 3096.176270
[planeAlignerCenter]
49 -13.253133 140.095444 -764.773010 0.000009 0.000003 -179.999985 777.611816
50 -14.309978 151.018768 -766.547119 0.000009 0.000003 -179.999985 781.412781
51 -12.900417 170.939713 -765.992676 0.000009 0.000003 -179.999985 784.940552
[Rear_Toe1_01]
49 0.653352 83.966492 -371.173737 -0.708826 58.076328 89.042656 380.553192
50 0.653352 83.966492 -371.173737 0.108691 57.226063 90.062889 380.553192
51 0.653352 83.966492 -371.173737 0.115325 53.603748 90.060188 380.553192
[Rear_Toe2_01]
49 178.200760 -294.826019 -362.060547 1.508552 50.270947 -69.026749 499.765686
50 178.200760 -294.826019 -362.060547 1.664811 50.301979 -68.757858 499.765686
51 178.200760 -294.826019 -362.060547 2.669934 53.670437 -67.546211 499.765686
[Rear_Toe3_01]
49 -153.359680 -308.780914 -362.060852 -1.844907 50.266754 -113.582054 499.952881
50 -153.359680 -308.780914 -362.060852 -2.012679 50.296204 -113.873779 499.952881
51 -153.359680 -308.780914 -362.060852 -3.160702 53.654980 -115.249458 499.952881
[planeLockWeightCenter]
49 0.002384 0.000000 0.076447 -0.011814 -0.004373 -0.000015 0.076484
50 0.000051 0.000051 0.076447 -0.011814 -0.004373 -0.000015 0.076447
51 0.000102 0.000102 0.076447 -0.011814 -0.004373 -0.000015 0.076447
[Rear_Toe1_02]
49 379.707825 0.194073 0.000477 -0.000767 -33.624729 0.000838 379.707855
50 379.707825 0.194073 0.000477 -0.000767 -33.624729 0.000838 379.707855
51 379.707825 0.194073 0.000477 -0.000767 -33.624729 0.000838 379.707855
[Rear_Toe1_03]
49 500.129700 0.165701 0.000119 -0.003957 58.874245 -0.000327 500.129761
50 500.129700 0.165701 0.000119 -0.004142 61.544090 -0.000535 500.129761
51 500.129700 0.165701 0.000119 0.007136 71.069366 0.007136 500.129761
[Rear_Toe2_02]
49 340.494507 0.000238 -0.000954 0.001175 -85.124718 0.001175 340.494507
50 340.494507 0.000238 -0.000954 0.001175 -85.505554 0.001175 340.494507
51 340.494507 0.000238 -0.000954 0.000000 -88.823303 0.000000 340.494507
[Rear_Toe2_03]
49 433.103577 0.000000 0.000238 179.984955 81.056046 179.984955 433.103546
50 433.103577 0.000000 0.000238 179.986664 79.909309 179.986664 433.103546
51 433.103577 0.000000 0.000238 -179.994873 70.287643 -179.998428 433.103546
[Rear_Toe3_02]
49 340.494141 -0.000358 -0.000477 0.001175 -84.986511 0.001175 340.494171
50 340.494141 -0.000358 -0.000477 0.001175 -85.370949 0.001175 340.494171
51 340.494141 -0.000358 -0.000477 0.001749 -88.725426 0.001749 340.494171
[Rear_Toe3_03]
49 433.103577 0.001431 -0.000238 -179.994110 81.375275 -179.990616 433.103546
50 433.103577 0.001431 -0.000238 -179.994995 80.245186 -179.991486 433.103546
51 433.103577 0.001431 -0.000238 -179.998352 70.638786 -179.994812 433.103546
[Back_Bone]
49 1312.175781 -701.934692 0.000954 -1.309868 3.152341 -85.176041 1488.125488
50 1312.175781 -701.934692 0.000954 -1.705185 3.121804 -84.850502 1488.125488
51 1312.175781 -701.934692 0.000954 -2.048518 2.815960 -84.352638 1488.125488
[Head]
49 1406.159424 809.709290 0.001431 8.605292 -3.631261 4.120219 1622.625488
50 1406.159424 809.709290 0.001431 8.171522 -3.519853 3.894425 1622.625488
51 1406.159424 809.709290 0.001431 7.737376 -3.410158 3.667825 1622.625488
[Motor_Bone]
49 1158.364380 -417.834747 0.000477 -1.391430 0.000038 -105.983665 1231.419434
50 1158.364380 -417.834747 0.000477 -1.019834 2.826898 -103.158165 1231.419434
51 1158.364380 -417.834747 0.000477 -0.553477 1.344020 -104.639450 1231.419434
[Ping_Mechanism]
49 1301.450928 -470.135803 28.344587 0.000103 -0.000053 82.120995 1384.054077
50 1294.335083 -468.814728 37.418648 0.000103 -0.000053 82.120995 1377.131348
51 1289.089478 -467.740082 40.870094 0.000103 -0.000053 82.120995 1371.933960
[BN_LookIK]
49 193.241119 1380.371704 -0.002861 0.000000 89.965736 -31.038179 1393.832153
50 193.241119 1380.371704 -0.002861 0.000000 89.965736 -31.038179 1393.832153
51 193.241119 1380.371704 -0.002861 0.000000 89.965736 -31.038179 1393.832153
[bottomMouth]
49 -435.092926 615.759399 -0.000954 -0.000022 0.000016 73.527184 753.966492
50 -435.092926 615.759399 -0.000954 -0.000022 0.000016 73.527184 753.966492
51 -435.092926 615.759399 -0.000954 -0.000022 0.000016 73.527184 753.966492
[L_Mouth01]
49 554.440979 7.658243 838.222046 150.204178 23.759130 109.605339 1005.027161
50 554.440979 7.658243 838.222046 150.204178 23.759130 109.605339 1005.027161
51 554.440979 7.658243 838.222046 150.204178 23.759130 109.605339 1005.027161
[L_mouthFront]
49 551.629089 934.514771 339.150421 0.000081 2.804060 79.119301 1136.941284
50 551.629089 934.514771 339.150421 0.000081 2.804060 79.119301 1136.941284
51 551.629089 934.514771 339.150421 0.000081 2.804060 79.119301 1136.941284
[mouthGun]
49 55.332661 1627.420898 0.000000 0.000023 0.000009 -11.038128 1628.361328
50 55.332661 1627.420898 0.000000 0.000023 0.000009 -11.038128 1628.361328
51 55.332661 1627.420898 0.000000 0.000023 0.000009 -11.038128 1628.361328
[R_Mouth01]
49 554.442383 7.659197 -838.223938 29.795891 -23.759109 109.605331 1005.029541
50 554.442383 7.659197 -838.223938 29.795891 -23.759109 109.605331 1005.029541
51 554.442383 7.659197 -838.223938 29.795891 -23.759109 109.605331 1005.029541
[R_mouthFront]
49 551.629089 934.514282 -339.151367 0.000029 -2.803930 79.119133 1136.941162
50 551.629089 934.514282 -339.151367 0.000029 -2.803930 79.119133 1136.941162
51 551.629089 934.514282 -339.151367 0.000029 -2.803930 79.119133 1136.941162
[TopMouth]
49 461.269867 -56.106091 -0.008583 -0.000059 -0.000268 92.025169 464.669525
50 461.269867 -56.106091 -0.008583 -0.000059 -0.000268 92.025169 464.669525
51 461.269867 -56.106091 -0.008583 -0.000059 -0.000268 92.025169 464.669525
[weapon_bone]
49 -987.239868 1448.372803 0.001431 0.000000 89.965736 -31.038221 1752.833740
50 -987.239868 1448.372803 0.001431 0.000000 89.965736 -31.038221 1752.833740
51 -987.239868 1448.372803 0.001431 0.000000 89.965736 -31.038221 1752.833740
